<?xml version="1.0" encoding="UTF-8"?>
<svg xmlns="http://www.w3.org/2000/svg" width="610" height="610">

<path d="
M369.07654,312.40573 489.6838,519.19514  512.9043,476.85112  A71.42969,71.42969 0 0,1 584.3261,353.14486  L608.4511,311.35915  z
M369.83134,279.62728 609.2198,278.57294  584.1591,237.29142  A71.42969,71.42969 0 0,1 512.7372,113.58516  L488.61219,71.799451 z
M341.822,261.75675   460.60325,54.976    412.322,54.9755     A71.42969,71.42969 0 0,1 269.47825,54.9755   L221.22825,54.9755   z
M313.05763,278.31927 192.45037,71.52986  168.54943,113.47178 A71.42969,71.42969 0 0,1 97.37061,237.49266  L73.68303,279.36584  z
M312.30266,311.09852  72.91416,312.15286 97.27505,353.69683  A71.42969,71.42969 0 0,1 169.39681,477.14064 L193.52181,518.92634 z
M340.31206,328.14325 221.53081,534.924   269.81206,534.9245  A71.42969,71.42969 0 0,1 412.65581,534.9245  L460.90581,534.9245  z
" fill="#202020"/>
<g fill="#4063d8"><circle cx="341.80485" cy="535.211"   r="25"/></g>
<g fill="#9558b2"><circle cx="548.6682"  cy="415.44803" r="25"/></g>
<g fill="#cb3c33"><circle cx="547.9998"  cy="175.4272"  r="25"/></g>
<g fill="#4063d8"><circle cx="340.81507" cy="55.16934"  r="25"/></g>
<g fill="#9558b2"><circle cx="132.962"   cy="176.41698" r="25"/></g>
<g fill="#cb3c33"><circle cx="133.95176" cy="415.44803" r="25"/></g>
<g fill="#389826"><circle cx="341.71903" cy="297.70897" r="25"/></g>
</svg>
