<?xml version="1.0" encoding="UTF-8" standalone="no"?>
<svg
   width="536.30566"
   height="530.04169"
   version="1.1"
   id="svg406"
   sodipodi:docname="logo.svg"
   inkscape:version="1.1 (c4e8f9e, 2021-05-24)"
   xmlns:inkscape="http://www.inkscape.org/namespaces/inkscape"
   xmlns:sodipodi="http://sodipodi.sourceforge.net/DTD/sodipodi-0.dtd"
   xmlns="http://www.w3.org/2000/svg"
   xmlns:svg="http://www.w3.org/2000/svg">
  <defs
     id="defs410" />
  <sodipodi:namedview
     id="namedview408"
     pagecolor="#ffffff"
     bordercolor="#111111"
     borderopacity="1"
     inkscape:pageshadow="0"
     inkscape:pageopacity="0"
     inkscape:pagecheckerboard="1"
     showgrid="false"
     inkscape:zoom="1.0418033"
     inkscape:cx="297.08104"
     inkscape:cy="483.77655"
     inkscape:window-width="1440"
     inkscape:window-height="2523"
     inkscape:window-x="0"
     inkscape:window-y="0"
     inkscape:window-maximized="1"
     inkscape:current-layer="svg406" />
  <path
     d="m 296.16238,282.23639 120.60726,206.78941 23.2205,-42.34402 a 71.42969,71.42969 0 0 1 71.4218,-123.70626 l 24.125,-41.78571 z m 0.7548,-32.77845 239.38846,-1.05434 -25.0607,-41.28152 A 71.42969,71.42969 0 0 1 439.82304,83.415822 L 415.69803,41.630113 Z m -28.00934,-17.87053 118.78125,-206.780748 -48.28125,-5e-4 a 71.42969,71.42969 0 0 1 -142.84375,0 h -48.25 z M 240.14347,248.14993 119.53621,41.360522 95.63527,83.302442 A 71.497558,71.497558 0 0 1 24.45645,207.32332 L 0.76887,249.1965 Z M 239.3885,280.92918 0,281.98352 24.36089,323.52749 A 71.484128,71.484128 0 0 1 96.48265,446.9713 l 24.125,41.7857 z m 28.0094,17.04473 -118.78125,206.78075 48.28125,5e-4 a 71.42969,71.42969 0 0 1 142.84375,0 h 48.25 z"
     fill="#202020"
     id="path376" />
  <g
     fill="#4063d8"
     id="g380"
     transform="translate(-72.91416,-30.169338)">
    <circle
       cx="341.80484"
       cy="535.211"
       r="25"
       id="circle378" />
  </g>
  <g
     fill="#9558b2"
     id="g384"
     transform="translate(-72.91416,-30.169338)">
    <circle
       cx="548.66821"
       cy="415.44803"
       r="25"
       id="circle382" />
  </g>
  <g
     fill="#cb3c33"
     id="g388"
     transform="translate(-72.91416,-30.169338)">
    <circle
       cx="547.99982"
       cy="175.4272"
       r="25"
       id="circle386" />
  </g>
  <g
     fill="#4063d8"
     id="g392"
     transform="translate(-72.91416,-30.169338)">
    <circle
       cx="340.81506"
       cy="55.169338"
       r="25"
       id="circle390" />
  </g>
  <g
     fill="#9558b2"
     id="g396"
     transform="translate(-72.91416,-30.169338)">
    <circle
       cx="132.96201"
       cy="176.41698"
       r="25"
       id="circle394" />
  </g>
  <g
     fill="#cb3c33"
     id="g400"
     transform="translate(-72.91416,-30.169338)">
    <circle
       cx="133.95177"
       cy="415.44803"
       r="25"
       id="circle398" />
  </g>
  <g
     fill="#389826"
     id="g404"
     transform="translate(-72.91416,-30.169338)">
    <circle
       cx="341.71902"
       cy="297.70898"
       r="25"
       id="circle402" />
  </g>
</svg>
